# xmcd CD database file
#
# Track frame offsets:
#        150
#        14562
#        29322
#        43084
#        56904
#        71492
#        84837
#        100236
#        113021
#        126610
#        138944
#        150335
#        162699
#
# Disc length: 2362 seconds
#
# Revision: 0
# Processed by: cddbd v1.5.2PL0 Copyright (c) Steve Scherf et al.
# Submitted via: CUERipper 2.1.5
#
DISCID=af09380d
DTITLE=Sétimo Sentido - O Cara Certo
DYEAR=2008
DGENRE=
TTITLE0=Faculdade Do Amor
TTITLE1=Oba Oba
TTITLE2=Danou
TTITLE3=Uma Vaza
TTITLE4=É Lenha
TTITLE5=Exclusividade
TTITLE6=O Cara Certo
TTITLE7=Bye Bye
TTITLE8=Agadu
TTITLE9=Cada Noite
TTITLE10=Ser Tua Namorada
TTITLE11=Amor Sem Cores
TTITLE12=Agadu (Remix)
EXTD=
EXTT0=
EXTT1=
EXTT2=
EXTT3=
EXTT4=
EXTT5=
EXTT6=
EXTT7=
EXTT8=
EXTT9=
EXTT10=
EXTT11=
EXTT12=
PLAYORDER=
